<svg id="Layer_1" data-name="Layer 1" xmlns="http://www.w3.org/2000/svg" viewBox="0 0 479.71 429.59"><defs><style>.cls-1{fill:blue;}</style></defs><title>Artboard 1</title><path class="cls-1" d="M136.65,89.58c0,16.2-12.17,31.94-29.15,31.94-8.15,0-13.29-2.35-16.64-6.14v30.16H71.75V56.29h19.1v7.59c3.46-5.47,8.82-9,17.54-9C130.73,54.84,136.65,75.28,136.65,89.58ZM90.74,88c0,8.82,6,16,13.4,16s13.29-7.15,13.29-16-6-16-13.29-16S90.74,79.19,90.74,88Z"/><path class="cls-1" d="M191.27,60.31,182.89,72a9.67,9.67,0,0,0-5.47-1.34c-8.49,0-13.18,8.15-13.18,16.87V120h-19.1V56.29h19.1v6.59c3.8-4.91,6.25-8.15,14.52-8.15C183.23,54.73,188,57.52,191.27,60.31Z"/><path class="cls-1" d="M249,72.49c2.35,5.36,3.69,16.42,2.12,23.23H206.57c0,5.47,6,10.05,15.08,10.05a20.4,20.4,0,0,0,15-6.25l11.62,7.37c-6.37,10.39-15.75,14.52-27.92,14.52-18.21,0-32.84-15-32.84-33.4a33.06,33.06,0,0,1,32.84-33.28C230,54.73,243.65,59.42,249,72.49ZM206.46,82.65h27.81c0-4.8-3.13-12-13.85-12C212.27,70.7,206.46,76.73,206.46,82.65Z"/><path class="cls-1" d="M294.14,56.07V69.58H281.41v24.8c0,6.48,1.34,11.06,5.47,11.06a7.58,7.58,0,0,0,5-1.79l7.37,11.17a22.58,22.58,0,0,1-16.64,6.59c-7.71,0-20.44-2.23-20.44-22.23V69.58h-6.37V56.07h6.37V43.34h19.21V56.07Z"/><path class="cls-1" d="M338.26,56.07V69.58H325.52v24.8c0,6.48,1.34,11.06,5.47,11.06a7.58,7.58,0,0,0,5-1.79l7.37,11.17a22.58,22.58,0,0,1-16.64,6.59c-7.71,0-20.44-2.23-20.44-22.23V69.58h-6.37V56.07h6.37V43.34h19.21V56.07Z"/><path class="cls-1" d="M385.84,121.52c-.11.56-.33,1.23-.56,2-6.37,19-12.06,22-19.88,22a22.43,22.43,0,0,1-16.64-6.59l7.48-11.17a7.15,7.15,0,0,0,5,1.79c3.69,0,6.7-4.8,5.36-9.72L344.07,56.07H365L377,95.16l11.73-39.09H408Z"/><path class="cls-1" d="M113.42,240.21v-6.7c-3.57,5-9.27,8.27-17.42,8.27-18.88,0-24.24-15.75-24.24-31.83V176.32H91.19v34.63c0,6.14,3.13,14,10.83,14,8.38,0,11.39-8.6,11.39-14.63v-34h19.1v63.89Z"/><path class="cls-1" d="M187.8,184.14v-7.71H207v64c0,18.43-16,25.47-34,25.47-11.28,0-20.33-2.23-26.36-10.95l10.95-10.16c3.46,3,6.59,5.14,14.63,5.14,11.28,0,15.53-4.8,15.53-9.72v-6.37c-3.69,4.8-9.72,7.93-19.1,7.93-17,0-26.58-15.75-26.58-31.83,0-14.41,6-34.74,28.37-34.74C179,175.2,184.45,178.78,187.8,184.14Zm-26.58,23.46c0,8.82,6,16,13.29,16,7.48,0,13.4-7.15,13.4-16s-5.92-15.86-13.4-15.86C167.25,191.73,161.22,198.88,161.22,207.59Z"/><path class="cls-1" d="M218.86,240.32V150.85H238v89.47Z"/><path class="cls-1" d="M284.87,241.88c-.11.56-.34,1.23-.56,2-6.37,19-12.06,22-19.88,22a22.43,22.43,0,0,1-16.64-6.59l7.48-11.17a7.15,7.15,0,0,0,5,1.79c3.69,0,6.7-4.8,5.36-9.72L243.1,176.43H264L276,215.52l11.73-39.09H307Z"/><path class="cls-1" d="M173.84,327.06v33.62H154.52V326.06c0-6.14-3.24-13.85-10.83-13.85-8.49,0-11.17,8.82-11.17,14.74v33.73H113.08V326.06c0-6.14-3.13-13.85-10.83-13.85-8.38,0-11.39,8.49-11.39,14.52v34H71.75V296.79h19.1v6.7c3.8-5,9.27-8.15,17.42-8.15,9.94,0,16.08,4.36,19.66,10.72a26,26,0,0,1,21.67-10.72C168.48,295.34,173.84,311,173.84,327.06Z"/><path class="cls-1" d="M225.11,360.57v-6.7c-3.57,5-9.27,8.27-17.42,8.27-18.88,0-24.24-15.75-24.24-31.83V296.68h19.43V331.3c0,6.14,3.13,14,10.83,14,8.38,0,11.39-8.6,11.39-14.63v-34h19.1v63.89Z"/><path class="cls-1" d="M299.5,304.5v-7.71h19.21v64c0,18.43-16,25.47-34,25.47-11.28,0-20.33-2.23-26.36-10.95l10.95-10.16c3.46,3,6.59,5.14,14.63,5.14,11.28,0,15.52-4.8,15.52-9.72V354.2c-3.69,4.8-9.72,7.93-19.1,7.93-17,0-26.58-15.75-26.58-31.83,0-14.41,6-34.74,28.37-34.74C290.68,295.56,296.15,299.14,299.5,304.5ZM272.92,328c0,8.82,6,16,13.29,16,7.48,0,13.4-7.15,13.4-16s-5.92-15.86-13.4-15.86C279,312.09,272.92,319.24,272.92,328Z"/><path class="cls-1" d="M357,294.67c4.69.11,18.32.67,26,8.82l-7.59,11.17c-9.49-5.81-28.71-6.59-28.82-.11-.11,4,7.6,3.69,16.31,5.81,10.5,2.46,22.79,7,22.45,21.33-.33,9.49-12,20.22-30.27,19.66S330.55,356,325,347.84l10.72-9.49c7.37,7.93,28.82,10.5,29,2.12.22-5.14-12.06-4.24-23.34-8.38-10.83-3.91-13.52-10.28-13.4-17.76C328.43,302.49,345,294.33,357,294.67Z"/></svg>