<svg id="Layer_1" data-name="Layer 1" xmlns="http://www.w3.org/2000/svg" viewBox="0 0 479.71 189.27"><defs><style>.cls-1{fill:blue;}</style></defs><title>Artboard 1 copy 3</title><path class="cls-1" d="M185.12,81.24v33.62H165.8V80.23c0-6.14-3.24-13.85-10.83-13.85-8.49,0-11.17,8.82-11.17,14.74v33.73H124.36V80.23c0-6.14-3.13-13.85-10.83-13.85-8.38,0-11.39,8.49-11.39,14.52v34H83V51h19.1v6.7c3.8-5,9.27-8.15,17.42-8.15,9.94,0,16.08,4.36,19.66,10.72a26,26,0,0,1,21.67-10.72C179.76,49.52,185.12,65.15,185.12,81.24Z"/><path class="cls-1" d="M236.39,114.75V108c-3.57,5-9.27,8.27-17.42,8.27-18.88,0-24.24-15.75-24.24-31.83V50.86h19.43V85.48c0,6.14,3.13,14,10.83,14,8.38,0,11.39-8.6,11.39-14.63v-34h19.1v63.89Z"/><path class="cls-1" d="M310.78,58.68V51H330v64c0,18.43-16,25.47-34,25.47-11.28,0-20.33-2.23-26.36-10.95l10.95-10.16c3.46,3,6.59,5.14,14.63,5.14,11.28,0,15.52-4.8,15.52-9.72v-6.37c-3.69,4.8-9.72,7.93-19.1,7.93-17,0-26.58-15.75-26.58-31.83,0-14.41,6-34.74,28.37-34.74C302,49.74,307.43,53.31,310.78,58.68ZM284.19,82.13c0,8.82,6,16,13.29,16,7.48,0,13.4-7.15,13.4-16S305,66.27,297.49,66.27C290.23,66.27,284.19,73.42,284.19,82.13Z"/><path class="cls-1" d="M368.3,48.85c4.69.11,18.32.67,26,8.82l-7.59,11.17c-9.49-5.81-28.71-6.59-28.82-.11-.11,4,7.6,3.69,16.31,5.81,10.5,2.46,22.79,7,22.45,21.33-.33,9.49-12,20.22-30.27,19.66s-24.57-5.36-30.16-13.51L347,92.52c7.37,7.93,28.82,10.5,29,2.12.22-5.14-12.06-4.24-23.34-8.38C341.83,82.36,339.15,76,339.26,68.5,339.71,56.67,356.24,48.51,368.3,48.85Z"/></svg>