<svg id="Layer_1" data-name="Layer 1" xmlns="http://www.w3.org/2000/svg" viewBox="0 0 479.71 176.43"><defs><style>.cls-1{fill:blue;}</style></defs><title>Artboard 1 copy</title><path class="cls-1" d="M136.65,83.36c0,16.2-12.17,31.94-29.15,31.94-8.15,0-13.29-2.35-16.64-6.14v30.16H71.75V50.07h19.1v7.59c3.46-5.47,8.82-9,17.54-9C130.73,48.62,136.65,69.06,136.65,83.36ZM90.74,81.79c0,8.82,6,16,13.4,16s13.29-7.15,13.29-16-6-16-13.29-16S90.74,73,90.74,81.79Z"/><path class="cls-1" d="M191.27,54.09l-8.38,11.73a9.67,9.67,0,0,0-5.47-1.34c-8.49,0-13.18,8.15-13.18,16.87v32.39h-19.1V50.07h19.1v6.59c3.8-4.91,6.25-8.15,14.52-8.15C183.23,48.51,188,51.3,191.27,54.09Z"/><path class="cls-1" d="M249,66.27c2.35,5.36,3.69,16.42,2.12,23.23H206.57c0,5.47,6,10.05,15.08,10.05a20.4,20.4,0,0,0,15-6.25l11.62,7.37c-6.37,10.39-15.75,14.52-27.92,14.52-18.21,0-32.84-15-32.84-33.4a33.06,33.06,0,0,1,32.84-33.28C230,48.51,243.65,53.2,249,66.27ZM206.46,76.43h27.81c0-4.8-3.13-12-13.85-12C212.27,64.48,206.46,70.51,206.46,76.43Z"/><path class="cls-1" d="M294.14,49.85V63.36H281.41v24.8c0,6.48,1.34,11.06,5.47,11.06a7.58,7.58,0,0,0,5-1.79l7.37,11.17a22.58,22.58,0,0,1-16.64,6.59c-7.71,0-20.44-2.23-20.44-22.23V63.36h-6.37V49.85h6.37V37.11h19.21V49.85Z"/><path class="cls-1" d="M338.26,49.85V63.36H325.52v24.8c0,6.48,1.34,11.06,5.47,11.06a7.58,7.58,0,0,0,5-1.79l7.37,11.17a22.58,22.58,0,0,1-16.64,6.59c-7.71,0-20.44-2.23-20.44-22.23V63.36h-6.37V49.85h6.37V37.11h19.21V49.85Z"/><path class="cls-1" d="M385.84,115.3c-.11.56-.33,1.23-.56,2-6.37,19-12.06,22-19.88,22a22.43,22.43,0,0,1-16.64-6.59l7.48-11.17a7.15,7.15,0,0,0,5,1.79c3.69,0,6.7-4.8,5.36-9.72L344.07,49.85H365L377,88.94l11.73-39.09H408Z"/></svg>