<svg id="Layer_1" data-name="Layer 1" xmlns="http://www.w3.org/2000/svg" viewBox="0 0 479.71 429.59"><defs><style>.cls-1{fill:blue;}</style></defs><title>Artboard 1 copy 4</title><path class="cls-1" d="M169.47,54.21c-.06-1.11.06-1.61-.12-1.95-1.61-3-.43-5.23,1.92-6.95,4.39-3.22,9-6.12,14.5-7a12.32,12.32,0,0,1,2.31-.2c5.69.14,11.25-.92,16.81-1.88,1.64-.28,3.25-.83,4.81.27a1.53,1.53,0,0,0,1,.19c4.9-.46,9.51,1,13.87,2.8,4.55,1.86,9.38,2.16,14,3.43a37.39,37.39,0,0,1,11.14,4.76c2.85,1.9,5.95,3.41,8.77,5.34a44.37,44.37,0,0,1,7.19,5.8c1.37,1.44,2,3.6,2.89,5.49a12.31,12.31,0,0,1,.82,2.87,4,4,0,0,0,3,3.25c3.17.89,6.4,1.58,9.63,2.22a34.73,34.73,0,0,1,8,3c4.71,2.2,6.68,6.08,8.5,10.43.93,2.22,2.52,4.16,2.6,6.71,0,.22.14.44.13.65-.4,5.72.33,11.46-.65,17.2a113,113,0,0,1-3.33,15.53c-.17.53-.21,1.1-.41,1.61-2.18,5.55-4.3,11.13-6.61,16.62a118.12,118.12,0,0,1-5.85,12.6A119.19,119.19,0,0,1,273,174c-2.22,2.7-4.86,4.16-8.47,3a33.39,33.39,0,0,0-3.55-.83c-2.37-.51-3.11-.07-4.22,2-1.77,3.32-4.07,5.94-8.26,6.09a6.82,6.82,0,0,0-2.81.91,8.87,8.87,0,0,1-6.46.72c-3.65-.88-7.24-2.13-10.93-2.74a89.83,89.83,0,0,0-11.56-.95c-6.79-.23-13.52-.82-20-3a41.61,41.61,0,0,1-7.52-3.44,12.25,12.25,0,0,0-7.94-1.76,12.07,12.07,0,0,1-2.66.11c-2.7-.25-4.52.62-5.05,3.51-.27,1.49-1.32,1.82-2.75,1.69-5.53-.51-8.69-3.38-9.66-8.81-.86-4.79-1.78-9.57-2.65-14.36a6.83,6.83,0,0,1-.13-2c.58-5,.15-9.92,0-14.88-.15-5.27.13-10.59-.49-15.81-.88-7.38-.33-14.72-.33-22.08,0-5.52.4-11,.31-16.55-.09-6-.76-11.84-3.16-17.49-2-4.62-.87-11.54,6.62-13C163.93,53.86,166.39,52.81,169.47,54.21Zm4.75,96.23c.31-.75.64-1.42.85-2.12,1.26-4.18,3.67-5.59,7.67-4.47a2.37,2.37,0,0,1,1.9,3,62.47,62.47,0,0,1-1.95,7,3.2,3.2,0,0,0,.66,3.63,29,29,0,0,0,7,6c6.88,4.11,14,7.07,22.27,6.41a91,91,0,0,1,13.29.09c2.75.18,5.42.66,8.23.21a6.32,6.32,0,0,0,5.27-4,21.56,21.56,0,0,0,1.52-4.72q2.29-13.28,4.38-26.58,1.3-8.2,2.37-16.43c.69-5.36,1-10.76,2.38-16a18.49,18.49,0,0,0,.14-2.65,2.5,2.5,0,0,0-1.89-3,12,12,0,0,1-3.2-1.73c-2.53-1.85-2.67-4.83-.19-6.72a22.93,22.93,0,0,1,4.92-2.69,6.18,6.18,0,0,0,3.66-5.33c-.07-1.7-1.3-2.86-3.9-3.5-2-.5-4.16-.74-6.18-1.34-6.21-1.85-12.63-2.47-19-2.89-8.39-.56-16.82-.6-25.23-1a173.67,173.67,0,0,0-23.24.5c-3.67.32-4.59,1.4-4.62,5.68s.11,8.37.08,12.56c0,5.75-.37,11.51-.2,17.25.18,6.05-.71,12.16.7,18.16a4.93,4.93,0,0,1,0,1c0,2.08.13,4.17.12,6.25,0,3.64-.22,7.28-.12,10.92C171.94,146.23,171.17,148.93,174.22,150.44Zm83.54-4c.17,3.82,2.77,5.6,6.18,4a7.2,7.2,0,0,0,4.06-4.17c1-2.7,1.76-5.47,4.21-7.35.56-.43.78-1.31,1.15-2,1.37-2.54,1.86-5.41,2.91-8,2-4.86,3.71-9.69,4.2-14.94a10.7,10.7,0,0,1,1-3.51c2.22-4.7,2.77-9.74,3.2-14.81.21-2.4-.75-4.25-2.79-4.7-3.82-.86-7.69-1.46-11.07,1.42a4.67,4.67,0,0,1-1.66,1.08c-2.22.57-2.79,2.29-3.16,4.2-.41,2.14-.87,4.28-1.25,6.43-.66,3.81-1.14,7.66-1.93,11.44-1.05,5-2.4,10-2.9,15.19S258.48,141.16,257.76,146.4Zm-9-84.59c-1.27-2.2-1.91-2.93-3.72-3.43-4.14-1.13-8.34-2.09-12.49-3.19-4.38-1.15-8.73-2.37-13.1-3.57a10.89,10.89,0,0,0-2.53-.73q-8.13-.11-16.26,0a24.18,24.18,0,0,0-2.89.68c-1.52.22-3.22.79-4.55.35a13.71,13.71,0,0,0-11.5,1.39,10.19,10.19,0,0,1-7.07,1.11c-1.22-.23-2.6-.59-3.93.79a9.24,9.24,0,0,0,2.16,1c3.25.49,6.4,1.29,9.78,1.35,8.74.16,17.47.86,26.2,1.45,7.63.52,15.24,1.19,22.86,1.76,2.19.16,4.4.15,6.59.34a9.51,9.51,0,0,1,3.16.75A8.61,8.61,0,0,0,248.8,61.81Z"/><path class="cls-1" d="M168.42,307.71a21.68,21.68,0,0,0,3.17,1.78c6.4,2.28,10.68,7,14.26,12.46a11.85,11.85,0,0,1,1.49,4.38,35.25,35.25,0,0,1-.31,15.81c-.91,3.3-1.28,6.74-2.92,9.83-2.46,4.64-5.18,8.94-10.09,11.52-2.62,1.37-4.78,3.63-7.38,5.06a82.07,82.07,0,0,1-10.27,4.61c-1.24.47-2.8.13-4.21.07-3.4-.15-6.81-.37-10.21-.51-1.53-.06-2,1-2.41,2.3-.92,3.2-1.79,6.42-2.83,9.58-3,9.22-4.84,9.17-12.62,9.21-7.2,0-14.4-.39-21.61-.36-7,0-13.22-2.41-19.37-5.29a5.83,5.83,0,0,1-1.89-1.34c-3-3.44-7.09-5.23-11-7.26-5.72-2.94-11.28-6.17-17.07-9A71.7,71.7,0,0,0,42,366.37c-6.74-2-9.11-8-6.32-14.05a77.73,77.73,0,0,0,5.42-18.08c.92-4.9,1.8-9.84,3.17-14.62,1.64-5.74,3.74-11.36,5.73-17,1-2.91,2.24-5.75,3.36-8.63a6.3,6.3,0,0,0,.43-1.26,35.69,35.69,0,0,1,3.7-10.55,17.5,17.5,0,0,0,1.43-7.1c.12-3.12,1.45-5.78,2.47-8.57S63,261,62,258.09a5.67,5.67,0,0,1,1-5.37C69,244.57,76.81,240.94,87,243c3.71.75,7.31,1.55,10.47,3.86,3.92,2.86,8.71,3.77,13.16,5.44a105,105,0,0,1,17.91,8.6c5.23,3.2,10.32,6.71,16.18,9,8.69,3.35,15.27,9.37,20.33,17.3,2.6,4.07,3.37,8.6,4.82,13,.5,1.5-.24,3.45-.52,5.17A13.68,13.68,0,0,1,168.42,307.71Zm-26.92.42a17.35,17.35,0,0,0-1.89-1.67c-4.47-2.87-9-5.66-13.45-8.57-3.15-2.05-6.2-4.25-9.3-6.38-4.08-2.81-8.15-5.63-12.26-8.4-2.27-1.53-4.73-2.8-6.9-4.45a36.88,36.88,0,0,0-14.95-6.9c-2.8-.58-4.66.36-5.69,2.83-1.62,3.87-3.06,7.82-4.57,11.74-1,2.48-1.89,5-2.82,7.45-1.86,4.94-4.82,9.46-5.82,14.74a6.39,6.39,0,0,1-.33.94c-1.61,4.46-3.6,8.83-4.73,13.41-1.65,6.65-2.87,13.43-3.91,20.22-.6,3.91-1.16,8,.27,11.87a5.61,5.61,0,0,0,1.71,2.7c4.51,3,9,6.07,13.76,8.71,4.23,2.36,7.95,5.71,12.82,6.91.59.14,1,.8,1.58,1.19,5.3,3.83,11,5,17.29,2.72a11,11,0,0,1,3.59-.49,39.63,39.63,0,0,0,14.88-3.22,6.53,6.53,0,0,0,3-9.89c-.91-1.39-2-2.66-3-4-1.72-2.4-1.64-7.66.38-8.94,2.44-1.56,5.06-2.7,8.16-1.44s3.94,1.05,5.09-2.4c1.44-4.3,2.59-8.71,3.75-13.11a9,9,0,0,0,.09-3.3c-.21-1.68-.87-2.12-2.48-1.66s-3.12,1.15-4.7,1.64c-2.09.64-4.19,1.3-6.34,1.73a5.14,5.14,0,0,1-4.8-1.71c-2.26-2.26-3.26-8-1.36-10.82,2.3-3.39,5.34-5.83,9.73-6.22a52.56,52.56,0,0,0,8.49-1.46C138.74,311.41,140.68,310.61,141.5,308.14Zm4.56,49.44c2.43,2.49,4.86,2.82,7.47,1.22a63.93,63.93,0,0,0,7.19-4.71,69.4,69.4,0,0,0,6.59-6.45c2.89-3.08,3.67-7.27,5.44-10.94a9.24,9.24,0,0,0,.56-4.24c-.16-3.87-1.95-5.75-5.8-6.38-2-.32-3.93-.66-5.91-.85a9.16,9.16,0,0,0-2.51.34c-.86.16-1.69.48-2.55.58-2.76.32-3.34.9-3.89,3.58-1.15,5.63-2.31,11.26-3.61,16.86C148.19,350.23,147.08,353.83,146.06,357.57Zm3.8-66.73a11.66,11.66,0,0,0-1.65-2.52,48.63,48.63,0,0,0-5.34-3.9c-4.31-2.62-8.63-5.31-12.66-8.23-5.1-3.69-11-5-16.49-7.26-.64-.27-1.56.14-2.77.28a10.39,10.39,0,0,0,1.28,1.7c3.38,2.65,6.66,5.47,10.23,7.85,5.6,3.75,11.34,7.3,17.14,10.75A12.44,12.44,0,0,0,149.86,290.84Z"/><path class="cls-1" d="M317.79,222.06c7.29.59,16.63,1,25.46,4.37a43.6,43.6,0,0,1,6.88,3.31c4.7,2.81,9.89,4.37,14.91,6.4,5.43,2.2,10.69,4.81,16,7.27a6.31,6.31,0,0,1,1.65,1.1c7.35,6.91,15.68,12.57,23.75,18.56,3.8,2.82,6.6,6.21,7.29,11a15,15,0,0,0,.56,1.91c1,3.52,2.94,5.12,6.69,5.1a27.84,27.84,0,0,1,11,2.16,15.36,15.36,0,0,1,6.73,5.24,39.85,39.85,0,0,1,4.07,7.22c2.14,4.86,2.2,10.12,2.39,15.31a7.8,7.8,0,0,1-.75,2.86c-.63,1.65-1.51,3.21-2,4.89a25.63,25.63,0,0,1-6,10.9.69.69,0,0,0-.2.26c-.91,3.67-4.3,5.76-5.76,9.09a15,15,0,0,1-11,8.8c-5.28,1.1-10.59.38-15.08-3.24-1.89-1.52-3.85-3-5.8-4.41s-3.08-1.08-3.51,1.53c-.23,1.41-.49,2.83-.85,4.22a22.66,22.66,0,0,0-.29,10.15c.46,2.38.77,4.8,1.13,7.2a3.27,3.27,0,0,1-1.42,3.5c-3.59,2.23-7.25,4.32-11.75,3.65-.11,0-.23-.09-.32-.06-5.85,1.51-10.38-2.16-15.27-4.12A34.76,34.76,0,0,0,357,364c-3.5-.39-7-1-10.46-1.63s-7-1.15-10.43-2a30.61,30.61,0,0,1-5.5-2.25c-3.28-1.53-6.56-3.08-9.78-4.74-1.36-.7-2.54-1.74-3.85-2.56-3.06-1.94-6-4.29-9.25-5.63s-5.93-3.52-9.54-4.37c-6-1.41-11.12-4.68-12.11-11.66a11.78,11.78,0,0,1,.48-3.83c.33-1.6.86-3.16,1.16-4.77.64-3.36,1.2-6.74,1.76-10.12.16-1,.23-2,.3-3,.39-5.3.88-10.6,1.1-15.92.13-3.19-.33-6.41-.26-9.61.08-4,.33-8,.72-12a48.53,48.53,0,0,1,1.35-6.15,29.6,29.6,0,0,0,.94-3.87,28.24,28.24,0,0,1,5.25-13.43c.92-1.34,1.17-2.73.07-4-2.32-2.63-3.24-6-4.92-8.94a5.09,5.09,0,0,1,2.15-7A48,48,0,0,1,317.79,222.06Zm55.09,131.31a20.19,20.19,0,0,0,4.57-.89,5.25,5.25,0,0,0,2.72-2.64,72.61,72.61,0,0,0,2.3-8.67c.8-3.57,1.41-7.18,2.18-10.76q2-9.26,4.14-18.49c.49-2.16,1.19-4.27,1.63-6.43.89-4.45,1.79-8.9,2.42-13.39.35-2.5-.94-4.42-3.07-5.86s-4.1-3-6.14-4.56c-5.23-3.92-11-6.1-17.65-5.47a7.85,7.85,0,0,1-2.3-.16q-7.62-1.59-15.23-3.26c-.86-.19-1.7-.49-2.54-.76l-5.33-1.72a29.62,29.62,0,0,1-4.4-1.41c-3.75-1.89-7.41-4-11.12-5.95-2.33-1.25-4.68-2.49-7-3.69-1.18-.6-2.39-1.17-3.62-1.65a2.89,2.89,0,0,0-3.74,1.3,9.18,9.18,0,0,0-1.22,2.71,134.19,134.19,0,0,0-3.11,13.62c-.55,4-1.27,8-.71,12.21.37,2.8-.17,5.73-.38,8.6-.12,1.64-.52,3.27-.58,4.91-.24,6.53-.41,13.06-.57,19.6a6.51,6.51,0,0,0,.32,1.94,25.27,25.27,0,0,0,10.73,14.32c4.07,2.68,8.38,5,12.52,7.56,7.09,4.39,15,5.85,23.12,6.54,3.86.33,7.75.48,11.6.9C365.79,352.19,369.17,352.81,372.89,353.38Zm16.37-88.75.43-.82c-.95-.83-1.86-1.7-2.85-2.48-.77-.62-1.71-1-2.42-1.72-2-1.91-4-3.82-5.8-5.88-3.68-4.14-8.63-6.5-13.59-8-6.28-1.87-11.85-5-17.38-8.11A49.64,49.64,0,0,0,328.7,231c-4.67-.55-9.06.52-13.36,2-2.23.79-3.22,2.28-2.76,4,.66,2.45,1.48,4.93,3.78,6.43,4.92,3.22,9.79,6.51,14.82,9.54a57.15,57.15,0,0,0,27.72,8.3,90,90,0,0,1,19.66,3.1A22.43,22.43,0,0,0,389.26,264.62Zm11,54.48c.21,2.3.47,4.34,2.27,5.87,2.69,2.29,5.28,4.7,8.13,6.77s6.16,1,7.87-1.9c1-1.72,2-3.48,3.05-5.14A48.39,48.39,0,0,0,429,305a5.25,5.25,0,0,0-2.6-5.63c-2.64-1.74-7.32-1.37-9.58.88-2.94,2.93-6.19,5-10.49,4.89a2.72,2.72,0,0,0-2.92,2.2C402.32,311.25,401.29,315.18,400.24,319.11Z"/></svg>