<svg id="Layer_1" data-name="Layer 1" xmlns="http://www.w3.org/2000/svg" viewBox="0 0 372.21 165"><defs><style>.cls-1{fill:blue;}</style></defs><title>Artboard 1 copy 2</title><path class="cls-1" d="M110.15,114.33v-6.7c-3.57,5-9.27,8.27-17.42,8.27-18.88,0-24.24-15.75-24.24-31.83V50.45H87.93V85.07c0,6.14,3.13,14,10.83,14,8.38,0,11.39-8.6,11.39-14.63v-34h19.1v63.89Z"/><path class="cls-1" d="M184.54,58.26V50.56h19.21v64c0,18.43-16,25.47-34,25.47-11.28,0-20.33-2.23-26.36-10.95l10.95-10.16c3.46,3,6.59,5.14,14.63,5.14,11.28,0,15.53-4.8,15.53-9.72V108c-3.69,4.8-9.72,7.93-19.1,7.93-17,0-26.58-15.75-26.58-31.83,0-14.41,6-34.74,28.37-34.74C175.72,49.33,181.19,52.9,184.54,58.26ZM158,81.72c0,8.82,6,16,13.29,16,7.48,0,13.4-7.15,13.4-16s-5.92-15.86-13.4-15.86C164,65.86,158,73,158,81.72Z"/><path class="cls-1" d="M215.59,114.45V25h19.1v89.47Z"/><path class="cls-1" d="M281.61,116c-.11.56-.34,1.23-.56,2-6.37,19-12.06,22-19.88,22a22.43,22.43,0,0,1-16.64-6.59L252,122.26a7.15,7.15,0,0,0,5,1.79c3.69,0,6.7-4.8,5.36-9.72L239.83,50.56h20.89l12.06,39.09,11.73-39.09h19.21Z"/></svg>